<svg id="Layer_1" data-name="Layer 1" xmlns="http://www.w3.org/2000/svg" viewBox="0 0 50 50"><defs><style>.cls-1{fill:#fff;}</style></defs><path class="cls-1" d="M20.49,49.05A14.35,14.35,0,0,1,6.14,34.71V22.36H34.83V34.71A14.35,14.35,0,0,1,20.49,49.05ZM8.14,24.36V34.71a12.35,12.35,0,1,0,24.69,0V24.36Z"/><path class="cls-1" d="M38,41.29a1,1,0,0,1-.4-1.91,7.15,7.15,0,0,0,.09-13.07A1,1,0,0,1,37.11,25a1,1,0,0,1,1.27-.53l.1,0a9.15,9.15,0,0,1-.11,16.72A1,1,0,0,1,38,41.29Z"/><path class="cls-1" d="M30.25,9.9a1.94,1.94,0,0,0-.05.59l.42,7.74s0,0,0,0L24,15s-4,.57-5.64.57c-6.76,0-12.24-3.27-12.24-7.3S11.62,1,18.38,1C24.72,1,29.93,3.82,30.56,7.5A3.77,3.77,0,0,1,30.45,9Z"/></svg>