<svg id="Layer_1" data-name="Layer 1" xmlns="http://www.w3.org/2000/svg" viewBox="0 0 165 80.4"><defs><style>.cls-1,.cls-3{fill:#fff;}.cls-2,.cls-3{isolation:isolate;}.cls-3{font-size:25px;font-family:Nunito-Regular, Nunito;}.cls-4{letter-spacing:-0.01em;}.cls-5{letter-spacing:0em;}.cls-6{letter-spacing:0em;}.cls-7{letter-spacing:0em;}</style></defs><path class="cls-1" d="M78,51.16A14.35,14.35,0,0,1,63.64,36.82V24.47H92.33V36.82A14.36,14.36,0,0,1,78,51.16ZM65.64,26.46V36.82a12.35,12.35,0,0,0,24.69,0V26.46Z"/><path class="cls-1" d="M95.47,43.4a1,1,0,0,1-.4-1.91,7.15,7.15,0,0,0,.09-13.07,1,1,0,0,1-.55-1.35,1,1,0,0,1,1.27-.52l.1.05a9.15,9.15,0,0,1-.11,16.72A1.14,1.14,0,0,1,95.47,43.4Z"/><path class="cls-1" d="M87.75,12a2,2,0,0,0-.06.59l.43,7.74s0,0,0,0l-6.56-3.27s-4,.57-5.64.57c-6.76,0-12.24-3.27-12.24-7.3s5.48-7.31,12.24-7.31c6.33,0,11.55,2.87,12.18,6.55A4,4,0,0,1,88,11.1Z"/><g id="Resume_Bank" data-name="Resume Bank" class="cls-2"><text class="cls-3" transform="translate(14.26 73.82)"><tspan class="cls-4">C</tspan><tspan class="cls-5" x="16.67" y="0">o</tspan><tspan class="cls-6" x="30.52" y="0">f</tspan><tspan class="cls-7" x="38.72" y="0">f</tspan><tspan x="46.8" y="0">ee Chats</tspan></text></g></svg>