<svg id="Layer_1" data-name="Layer 1" xmlns="http://www.w3.org/2000/svg" viewBox="0 0 50 50"><defs><style>.cls-1{fill:#fff;}</style></defs><path class="cls-1" d="M31.71,49.24a1.58,1.58,0,0,1-1.58-1.58V35a4.6,4.6,0,0,0-1.37-3.3l-.3-.3a4.66,4.66,0,0,0-6.84.29,4.67,4.67,0,0,0-1.1,3v13a1.58,1.58,0,0,1-3.16,0v-13A7.82,7.82,0,0,1,30.7,29.15l.3.31A7.74,7.74,0,0,1,33.29,35V47.66A1.58,1.58,0,0,1,31.71,49.24Z"/><path class="cls-1" d="M25.33,25.8a6.47,6.47,0,1,1,6.47-6.47A6.48,6.48,0,0,1,25.33,25.8Zm0-9.78a3.31,3.31,0,1,0,3.31,3.31A3.32,3.32,0,0,0,25.33,16Z"/><path class="cls-1" d="M46.81,39.24a1.57,1.57,0,0,1-1.58-1.58V25a4.63,4.63,0,0,0-1.37-3.29l-.3-.3a4.65,4.65,0,0,0-7.94,3.29V29a1.58,1.58,0,0,1-3.16,0V24.69a7.81,7.81,0,0,1,13.33-5.53l.31.3A7.8,7.8,0,0,1,48.39,25V37.66A1.58,1.58,0,0,1,46.81,39.24Z"/><path class="cls-1" d="M40.42,15.81A6.48,6.48,0,1,1,46.9,9.34,6.47,6.47,0,0,1,40.42,15.81Zm0-9.78a3.31,3.31,0,1,0,3.31,3.31A3.31,3.31,0,0,0,40.42,6Z"/><path class="cls-1" d="M3.19,37.14a1.58,1.58,0,0,1-1.58-1.58V22.89A7.8,7.8,0,0,1,3.9,17.36l.31-.3a7.81,7.81,0,0,1,13.33,5.53v4.29a1.58,1.58,0,0,1-3.16,0V22.59a4.65,4.65,0,0,0-4.46-4.65A4.54,4.54,0,0,0,6.44,19.3l-.3.3a4.63,4.63,0,0,0-1.37,3.29V35.56A1.58,1.58,0,0,1,3.19,37.14Z"/><path class="cls-1" d="M9.58,13.71a6.48,6.48,0,1,1,6.47-6.47A6.48,6.48,0,0,1,9.58,13.71Zm0-9.79a3.32,3.32,0,1,0,3.31,3.32A3.32,3.32,0,0,0,9.58,3.92Z"/></svg>