<svg id="Layer_1" data-name="Layer 1" xmlns="http://www.w3.org/2000/svg" viewBox="0 0 165 80.4"><defs><style>.cls-1,.cls-3{fill:#fff;}.cls-2,.cls-3{isolation:isolate;}.cls-3{font-size:25px;font-family:Nunito-Regular, Nunito;}.cls-4{letter-spacing:-0.01em;}.cls-5{letter-spacing:0.01em;}.cls-6{letter-spacing:0.01em;}</style></defs><path class="cls-1" d="M89.21,49.48a1.59,1.59,0,0,1-1.58-1.59V35.22a4.63,4.63,0,0,0-1.37-3.29l-.3-.3a4.64,4.64,0,0,0-6.84.29,4.64,4.64,0,0,0-1.1,3v13a1.58,1.58,0,1,1-3.16,0v-13A7.82,7.82,0,0,1,88.2,29.39l.3.3a7.78,7.78,0,0,1,2.29,5.53V47.89A1.59,1.59,0,0,1,89.21,49.48Z"/><path class="cls-1" d="M82.82,26a6.48,6.48,0,1,1,6.48-6.47A6.47,6.47,0,0,1,82.82,26Zm0-9.78a3.31,3.31,0,1,0,3.32,3.31A3.31,3.31,0,0,0,82.82,16.26Z"/><path class="cls-1" d="M104.31,39.48a1.58,1.58,0,0,1-1.58-1.58V25.23a4.63,4.63,0,0,0-1.37-3.29l-.3-.3a4.65,4.65,0,0,0-6.84.28,4.67,4.67,0,0,0-1.1,3v4.29a1.59,1.59,0,0,1-3.17,0V24.93a7.82,7.82,0,0,1,7.49-7.81,7.75,7.75,0,0,1,5.85,2.28l.3.3a7.77,7.77,0,0,1,2.3,5.53V37.9A1.58,1.58,0,0,1,104.31,39.48Z"/><path class="cls-1" d="M97.92,16.05a6.48,6.48,0,1,1,6.47-6.47A6.48,6.48,0,0,1,97.92,16.05Zm0-9.79a3.32,3.32,0,1,0,3.31,3.32A3.32,3.32,0,0,0,97.92,6.26Z"/><path class="cls-1" d="M60.69,37.38a1.58,1.58,0,0,1-1.58-1.58V23.13A7.76,7.76,0,0,1,61.4,17.6l.3-.3A7.82,7.82,0,0,1,75,22.83v4.29a1.58,1.58,0,0,1-3.16,0V22.83a4.67,4.67,0,0,0-1.1-3,4.6,4.6,0,0,0-3.36-1.64,4.5,4.5,0,0,0-3.48,1.36l-.3.3a4.63,4.63,0,0,0-1.37,3.29V35.8A1.58,1.58,0,0,1,60.69,37.38Z"/><path class="cls-1" d="M67.08,14a6.48,6.48,0,1,1,6.47-6.48A6.49,6.49,0,0,1,67.08,14Zm0-9.79a3.31,3.31,0,1,0,3.31,3.31A3.31,3.31,0,0,0,67.08,4.16Z"/><g id="Community" class="cls-2"><text class="cls-3" transform="translate(21.06 73.82)"><tspan class="cls-4">C</tspan><tspan x="16.67" y="0">ommunity</tspan></text></g></svg>