<svg id="Layer_1" data-name="Layer 1" xmlns="http://www.w3.org/2000/svg" viewBox="0 0 165 80.4"><defs><style>.cls-1,.cls-3{fill:#fff;}.cls-2,.cls-3{isolation:isolate;}.cls-3{font-size:25px;font-family:Nunito-Regular, Nunito;}.cls-4{letter-spacing:-0.01em;}</style></defs><path class="cls-1" d="M95.05,48.84H69.94a1.39,1.39,0,0,1-1.39-1.39V22.34a1.39,1.39,0,1,1,2.78,0V46.06H93.66V22.34a1.39,1.39,0,0,1,2.78,0V47.45A1.39,1.39,0,0,1,95.05,48.84Z"/><path class="cls-1" d="M62.75,23.73a1.39,1.39,0,0,1-1-2.37l20-19.95a1.37,1.37,0,0,1,2,0L103.23,21a1.39,1.39,0,0,1-2,2L82.7,4.36l-19,19A1.38,1.38,0,0,1,62.75,23.73Z"/><path class="cls-1" d="M86.06,45a.92.92,0,0,1-.92-.93V35.33a4.16,4.16,0,0,0-5.28,0v8.76a.93.93,0,1,1-1.85,0V34.9a.91.91,0,0,1,.27-.66,6,6,0,0,1,8.41,0,1.06,1.06,0,0,1,.3.69v9.14A.92.92,0,0,1,86.06,45Z"/><g id="Dashboard" class="cls-2"><text class="cls-3" transform="translate(25.14 74.82)">Dashboard</text></g></svg>