<svg id="Layer_1" data-name="Layer 1" xmlns="http://www.w3.org/2000/svg" viewBox="0 0 50 50"><defs><style>.cls-1{fill:#fff;}</style></defs><path class="cls-1" d="M37.56,48.92H12.44a1.39,1.39,0,0,1-1.39-1.39V22.42a1.39,1.39,0,1,1,2.78,0V46.14H36.17V22.42a1.39,1.39,0,0,1,2.78,0V47.53A1.39,1.39,0,0,1,37.56,48.92Z"/><path class="cls-1" d="M5.25,23.81a1.39,1.39,0,0,1-1-2.37l20-20a1.37,1.37,0,0,1,2,0L45.74,21a1.39,1.39,0,0,1-2,2L25.2,4.43l-19,19A1.35,1.35,0,0,1,5.25,23.81Z"/><path class="cls-1" d="M28.56,45.08a.93.93,0,0,1-.92-.93V35.41a4.17,4.17,0,0,0-5.28,0v8.77a.93.93,0,1,1-1.85,0V35a1,1,0,0,1,.27-.66,6,6,0,0,1,8.41,0,1,1,0,0,1,.3.69v9.14A.93.93,0,0,1,28.56,45.08Z"/></svg>