<svg id="Layer_1" data-name="Layer 1" xmlns="http://www.w3.org/2000/svg" viewBox="0 0 50 50"><defs><style>.cls-1{fill:#fff;}</style></defs><path class="cls-1" d="M47.08,44.79H2.92a1.3,1.3,0,0,1-1.3-1.3V12.66a1.3,1.3,0,0,1,1.3-1.31H47.08a1.3,1.3,0,0,1,1.3,1.31V43.49A1.3,1.3,0,0,1,47.08,44.79ZM4.23,42.18H45.77V14H4.23Z"/><path class="cls-1" d="M18.09,10.77a1.3,1.3,0,0,1-.93-2.22l.13-.13a11,11,0,0,1,15.55,0A1.31,1.31,0,0,1,31,10.27a8.4,8.4,0,0,0-11.86,0l-.12.12A1.27,1.27,0,0,1,18.09,10.77Z"/><path class="cls-1" d="M17.73,29H8.3a.87.87,0,0,1,0-1.74h9.43a.87.87,0,0,1,0,1.74Z"/><path class="cls-1" d="M41.7,29H32.27a.87.87,0,1,1,0-1.74H41.7a.87.87,0,0,1,0,1.74Z"/><path class="cls-1" d="M30,31.58H19.71a.87.87,0,0,1-.87-.87V25.45a.87.87,0,0,1,.87-.87H30a.87.87,0,0,1,.87.87v5.26A.87.87,0,0,1,30,31.58Zm-9.42-1.74h8.55V26.32H20.58Z"/></svg>