<svg id="Layer_1" data-name="Layer 1" xmlns="http://www.w3.org/2000/svg" viewBox="0 0 165 80.4"><defs><style>.cls-1,.cls-3{fill:#fff;}.cls-2,.cls-3{isolation:isolate;}.cls-3{font-size:25px;font-family:Nunito-Regular, Nunito;}</style></defs><path class="cls-1" d="M104.57,40.84H60.42a1.3,1.3,0,0,1-1.3-1.3V8.7a1.3,1.3,0,0,1,1.3-1.3h44.15a1.3,1.3,0,0,1,1.31,1.3V39.54A1.3,1.3,0,0,1,104.57,40.84ZM61.73,38.23h41.54V10H61.73Z"/><path class="cls-1" d="M75.59,6.82a1.3,1.3,0,0,1-.93-2.22l.12-.13a11,11,0,0,1,15.56,0,1.31,1.31,0,0,1-1.85,1.85,8.4,8.4,0,0,0-11.86,0l-.12.12A1.31,1.31,0,0,1,75.59,6.82Z"/><path class="cls-1" d="M75.23,25H65.8a.87.87,0,0,1,0-1.74h9.43a.87.87,0,1,1,0,1.74Z"/><path class="cls-1" d="M99.2,25H89.77a.87.87,0,1,1,0-1.74H99.2a.87.87,0,1,1,0,1.74Z"/><path class="cls-1" d="M87.5,27.63H77.21a.87.87,0,0,1-.87-.87V21.5a.87.87,0,0,1,.87-.87H87.5a.87.87,0,0,1,.87.87v5.26A.87.87,0,0,1,87.5,27.63Zm-9.42-1.74h8.55V22.37H78.08Z"/><g id="Jobs" class="cls-2"><text class="cls-3" transform="translate(58.35 73.82)">Jobs</text></g></svg>